<?xml version="1.0" encoding="UTF-8"?>
<svg width="474px" height="474px" viewBox="0 0 474 474" version="1.1" xmlns="http://www.w3.org/2000/svg" xmlns:xlink="http://www.w3.org/1999/xlink">
    <!-- Generator: Sketch 52.6 (67491) - http://www.bohemiancoding.com/sketch -->
    <title>Group 37</title>
    <desc>Created with Sketch.</desc>
    <g id="Page-1" stroke="none" stroke-width="1" fill="none" fill-rule="evenodd">
        <g id="Group-37" fill="#A8BCCD">
            <g id="time-and-date">
                <polygon id="Path" points="217.25 0 256.75 0 256.75 39.5 217.25 39.5"></polygon>
                <polygon id="Path" points="335.75 0 375.25 0 375.25 39.5 335.75 39.5"></polygon>
                <polygon id="Path" points="98.75 0 138.25 0 138.25 39.5 98.75 39.5"></polygon>
                <path d="M454.25,39.5 L375.25,39.5 L375.25,98.75 L335.75,98.75 L335.75,39.5 L256.75,39.5 L256.75,98.75 L217.25,98.75 L217.25,39.5 L138.25,39.5 L138.25,98.75 L98.75,98.75 L98.75,39.5 L19.75,39.5 C8.84237619,39.5 1.33579866e-15,48.3423762 0,59.25 L0,138.25 L474,138.25 L474,59.25 C474,48.3423762 465.157624,39.5 454.25,39.5 Z" id="Path"></path>
                <path d="M0,454.25 C1.33579866e-15,465.157624 8.84237619,474 19.75,474 L454.25,474 C465.157624,474 474,465.157624 474,454.25 L474,158 L0,158 L0,454.25 Z M375.25,217.25 L414.75,217.25 L414.75,256.75 L375.25,256.75 L375.25,217.25 Z M375.25,296.25 L414.75,296.25 L414.75,335.75 L375.25,335.75 L375.25,296.25 Z M296.25,217.25 L335.75,217.25 L335.75,256.75 L296.25,256.75 L296.25,217.25 Z M296.25,296.25 L335.75,296.25 L335.75,335.75 L296.25,335.75 L296.25,296.25 Z M217.25,217.25 L256.75,217.25 L256.75,256.75 L217.25,256.75 L217.25,217.25 Z M217.25,296.25 L256.75,296.25 L256.75,335.75 L217.25,335.75 L217.25,296.25 Z M138.25,217.25 L177.75,217.25 L177.75,256.75 L138.25,256.75 L138.25,217.25 Z M138.25,296.25 L177.75,296.25 L177.75,335.75 L138.25,335.75 L138.25,296.25 Z M138.25,375.25 L177.75,375.25 L177.75,414.75 L138.25,414.75 L138.25,375.25 Z M59.25,217.25 L98.75,217.25 L98.75,256.75 L59.25,256.75 L59.25,217.25 Z M59.25,296.25 L98.75,296.25 L98.75,335.75 L59.25,335.75 L59.25,296.25 Z M59.25,375.25 L98.75,375.25 L98.75,414.75 L59.25,414.75 L59.25,375.25 Z" id="Shape" fill-rule="nonzero"></path>
            </g>
        </g>
    </g>
</svg>