<svg id="Layer_1" data-name="Layer 1" xmlns="http://www.w3.org/2000/svg" viewBox="0 0 60 60"><defs><style>.cls-1{fill:#fff;}</style></defs><title>persons</title><g id="Page-1"><g id="Facilities"><g id="profile"><path id="Shape" class="cls-1" d="M29.33,32.78a9.27,9.27,0,0,0,9-9.52,9.24,9.24,0,0,0-9-9.48,9.26,9.26,0,0,0-9,9.48A9.29,9.29,0,0,0,29.33,32.78Zm0-16a6.28,6.28,0,0,1,6,6.5,6.29,6.29,0,0,1-6,6.5,6.29,6.29,0,0,1-6-6.5A6.28,6.28,0,0,1,29.33,16.78Z"/><path id="Shape-2" data-name="Shape" class="cls-1" d="M13.53,46.78h31.6a1.21,1.21,0,0,0,1.2-1.24A11.61,11.61,0,0,0,34.92,33.78H23.75A11.61,11.61,0,0,0,12.33,45.54,1.21,1.21,0,0,0,13.53,46.78Zm10.8-10h10a8.07,8.07,0,0,1,8,7h-26A8.09,8.09,0,0,1,24.33,36.78Z"/></g></g></g></svg>