<?xml version="1.0" encoding="UTF-8"?>
<svg width="33px" height="33px" viewBox="0 0 33 33" version="1.1" xmlns="http://www.w3.org/2000/svg" xmlns:xlink="http://www.w3.org/1999/xlink">
    <!-- Generator: Sketch 52.6 (67491) - http://www.bohemiancoding.com/sketch -->
    <title>Shape</title>
    <desc>Created with Sketch.</desc>
    <g id="Page-1" stroke="none" stroke-width="1" fill="none" fill-rule="evenodd">
        <g id="Settings-Button-Strategy-Dropdown" transform="translate(-2443.000000, -271.000000)" fill="#FFFFFF" fill-rule="nonzero">
            <g id="Group-23" transform="translate(2420.000000, 256.000000)">
                <g id="cog-wheel-silhouette" transform="translate(23.000000, 15.000000)">
                    <path d="M32.8285747,13.6534961 C32.7135147,13.5028425 32.5633875,13.4132178 32.3774404,13.3847727 L28.4456119,12.7833621 C28.2308434,12.0957884 27.9372111,11.3941427 27.5648655,10.6778229 C27.8223769,10.3197759 28.2089452,9.81498829 28.7244949,9.16308386 C29.2400446,8.51132992 29.6051661,8.03528843 29.8202356,7.73435736 C29.934844,7.57678055 29.9917343,7.41220535 29.9917343,7.24018024 C29.9917343,7.03978528 29.9420682,6.88235898 29.8413813,6.76760032 C29.3260573,6.03705798 28.1443039,4.81971318 26.2965725,3.11518965 C26.1253748,2.97198589 25.9458241,2.90042164 25.7598771,2.90042164 C25.5448828,2.90042164 25.3730831,2.96476174 25.2441016,3.09359244 L22.193471,5.39245295 C21.6060559,5.09152188 20.9615247,4.82656107 20.2600279,4.59742001 L19.6584654,0.64452978 C19.6440923,0.458357372 19.5616164,0.304317388 19.4112634,0.182560332 C19.2606847,0.0606527732 19.0855739,0 18.8847269,0 L14.1152712,0 C13.6998816,0 13.4419938,0.200394957 13.3418338,0.601485877 C13.1555857,1.31735415 12.9478156,2.64938237 12.7187493,4.59734476 C12.0454719,4.81256428 11.3937918,5.08467399 10.7636336,5.41405015 L7.79879006,3.11518965 C7.61261724,2.97198589 7.42644442,2.90042164 7.24027159,2.90042164 C6.92519253,2.90042164 6.24852882,3.41243339 5.21005471,4.43653213 C4.1715806,5.46085664 3.46654698,6.23060505 3.09382508,6.74600311 C2.96484358,6.93217552 2.90057859,7.09697648 2.90057859,7.24018024 C2.90057859,7.41220535 2.97206775,7.58407996 3.11527183,7.75572881 C4.07480685,8.91610817 4.8412459,9.90408616 5.4142127,10.7208668 C5.05608963,11.3796191 4.7768304,12.0385972 4.57651025,12.6973495 L0.580266222,13.2987602 C0.422764315,13.3275063 0.286784408,13.420743 0.172100746,13.5783198 C0.0571913278,13.7357461 1.13686838e-13,13.9006223 1.13686838e-13,14.0721959 L1.13686838e-13,18.8418668 C1.13686838e-13,19.0283402 0.0571913278,19.1962265 0.17187499,19.3466544 C0.286558653,19.497007 0.436836392,19.5870832 0.623084466,19.615453 L4.55498825,20.1956427 C4.75538365,20.8973637 5.04894072,21.6060831 5.4357347,22.3220266 C5.17807272,22.6802994 4.79135399,23.1850117 4.27572902,23.8367656 C3.7601793,24.4888206 3.39460631,24.9647116 3.17998833,25.2654921 C3.06522941,25.423671 3.00803809,25.5879452 3.00803809,25.759895 C3.00803809,25.9458417 3.05815575,26.1104169 3.15831583,26.2536206 C3.71690954,27.0275079 4.89851248,28.2306301 6.70335038,29.8633637 C6.86100279,30.0209405 7.04010195,30.0995031 7.2404221,30.0995031 C7.45541634,30.0995031 7.63444025,30.0353888 7.77756907,29.9066333 L10.8071292,27.6074718 C11.3946948,27.9082524 12.0390755,28.1732884 12.7408733,28.4027305 L13.3423605,32.3556207 C13.3568841,32.5415674 13.4392095,32.6956074 13.589412,32.8176654 C13.7396897,32.9397235 13.9153273,33 14.115798,33 L18.8852537,33 C19.3013959,33 19.5589073,32.7996803 19.6593684,32.3984389 C19.8453155,31.6824953 20.0528598,30.3506176 20.2820014,28.4027305 C20.9552035,28.1876615 21.6069589,27.9154013 22.237117,27.5858746 L25.2021864,29.9066333 C25.4025818,30.035464 25.5890556,30.0995031 25.7605543,30.0995031 C26.0755581,30.0995031 26.748685,29.5914044 27.7797845,28.5741536 C28.8114107,27.5574295 29.5203574,26.7839185 29.9066998,26.2536206 C30.0354556,26.1104921 30.1000216,25.9458417 30.1000216,25.759895 C30.1000216,25.5734216 30.0287582,25.3940218 29.8850273,25.222674 C28.8542289,23.961909 28.0877899,22.9740063 27.5863875,22.2576112 C27.8727956,21.7276144 28.1522053,21.0760862 28.4243909,20.3025752 L32.3989624,19.7014656 C32.5704612,19.6726442 32.714192,19.5794075 32.8284994,19.4218307 C32.9431078,19.2639529 32.9999981,19.0991519 32.9999981,18.9273526 L32.9999981,14.1582085 C33.0003744,13.9720361 32.9434841,13.8039993 32.8285747,13.6534961 Z M20.3886563,20.3884305 C19.3147532,21.4627851 18.0184843,22 16.5,22 C14.9816662,22 13.6855478,21.4627851 12.6111932,20.3884305 C11.5372149,19.3145275 11,18.0181833 11,16.5 C11,14.9816662 11.5369139,13.6855478 12.6111932,12.6111932 C13.6855478,11.5372149 14.9818919,11 16.5,11 C18.0184843,11 19.3148285,11.5372149 20.3886563,12.6111932 C21.4627851,13.6855478 22,14.9816662 22,16.5 C22,18.0181833 21.4628603,19.3146027 20.3886563,20.3884305 Z" id="Shape" transform="translate(16.500000, 16.500000) scale(1, -1) translate(-16.500000, -16.500000) "></path>
                </g>
            </g>
        </g>
    </g>
</svg>